<svg width="75" height="21" viewBox="0 0 75 21" fill="none" xmlns="http://www.w3.org/2000/svg">
<path d="M18.0638 8.52987C18.7308 9.37523 19.5553 10.4963 20.024 11.6707L20.2504 12.238L20.317 11.6303C20.3685 11.1589 20.3882 10.6775 20.3761 10.2L20.3753 10.1703L20.3632 10.1429C20.0611 9.44073 19.6462 8.80099 19.2101 8.15516C19.279 7.32579 19.2911 6.56649 19.2494 5.83384L19.2472 5.80109L19.232 5.77215C19.014 5.35099 18.7596 4.93593 18.4772 4.5399L18.1387 4.06543L18.2016 4.64576C18.3401 5.92066 18.2016 7.21003 18.032 8.41334" fill="#D51C54"/>
<path d="M4.43469 18.3998L3.83807 18.3336L4.33096 18.6786C4.7118 18.9443 5.09718 19.1881 5.50906 19.4226L5.53858 19.4394L5.7468 19.4554C6.47667 19.5125 7.23077 19.5719 7.94474 19.4874C8.55423 19.9131 9.20157 20.2924 9.86936 20.6153L9.89889 20.6297L9.9322 20.6305C10.0231 20.632 10.1124 20.6336 10.201 20.6336C10.5871 20.6336 10.9574 20.616 11.3268 20.5818L11.9257 20.5254L11.3723 20.2878C10.2419 19.8034 9.22353 19.0723 8.29226 18.3541L8.23926 18.313" fill="#D51C54"/>
<path d="M6.3707 1.43842L6.70535 0.974609L6.1852 1.20842C5.7491 1.40415 5.32283 1.63415 4.91701 1.89232L4.889 1.9106L4.87083 1.93878C4.44305 2.60136 4.07584 3.26319 3.748 3.96004C3.07492 4.27991 2.37079 4.63252 1.756 5.09024L1.73328 5.10775L1.71814 5.13213C1.43498 5.58527 1.21692 6.00034 1.05187 6.40246L0.859558 6.86855L1.27674 6.58828C2.39956 5.83431 3.46938 5.2715 4.54678 4.86633L4.61113 4.84196" fill="#D51C54"/>
<path d="M16.5942 8.86158C17.0038 6.87841 17.352 4.94549 17.1779 3.10321L17.1726 3.04456L17.1294 3.00496C16.8364 2.73384 16.5381 2.48784 16.2428 2.27307L15.9847 2.08496L16.0013 2.40483C16.0914 4.09556 15.7363 5.83427 15.3941 7.51509L15.3691 7.63847C15.2677 8.13426 15.1564 8.64986 15.0269 9.2142L15.0087 9.29264L15.0625 9.35205C15.2851 9.59804 15.5152 9.84708 15.7484 10.0999C17.0719 11.5317 18.44 13.013 19.1775 14.7098L19.3138 15.0236L19.4553 14.7129C19.6219 14.3473 19.7665 13.9787 19.8854 13.6177L19.9043 13.5606L19.8793 13.5058C19.0556 11.7099 17.6988 10.0862 16.5942 8.86158Z" fill="#D51C54"/>
<path d="M6.36915 7.21209L6.8098 7.07272L6.83403 6.99656C7.37084 5.2807 7.96291 3.46279 8.77758 1.76292C8.95929 1.38441 9.15993 0.983055 9.40146 0.613684L9.57862 0.341797L9.2576 0.37683C8.86541 0.419479 8.48457 0.481929 8.12418 0.562658L8.06739 0.575605L8.03332 0.623585C6.93094 2.17647 6.28814 4.04464 5.66654 5.85113L5.64913 5.90064C5.40912 5.9867 5.16381 6.072 4.91547 6.15805C3.352 6.70107 1.73477 7.26312 0.483235 8.2867L0.441593 8.32097L0.430236 8.37352C0.349223 8.75127 0.287139 9.13587 0.245497 9.51666L0.211426 9.83729L0.480206 9.66213C2.25265 8.50984 4.34535 7.85031 6.36915 7.21209Z" fill="#D51C54"/>
<path d="M9.73536 15.9903C9.51125 15.7831 9.28941 15.5783 9.06908 15.378L9.0123 15.3262L8.93734 15.3414C8.65721 15.3985 8.3748 15.4572 8.09087 15.5158C6.17761 15.9141 4.19847 16.3269 2.26855 16.2165L1.95813 16.199L2.13454 16.4564C2.35335 16.7762 2.60775 17.0672 2.84927 17.3375L2.88788 17.3809L2.94543 17.387C4.59672 17.5706 6.28815 17.2896 7.92431 17.0177C8.1522 16.9796 8.37858 16.9423 8.60421 16.9057L8.78365 17.0618C10.1412 18.2408 11.5441 19.4593 13.1803 20.1699L13.2325 20.1927L13.2863 20.176C13.7186 20.0396 14.0457 19.9155 14.3485 19.7754L14.6431 19.6391L14.3508 19.4982C12.6473 18.6787 11.1671 17.3124 9.73536 15.9903Z" fill="#D51C54"/>
<path d="M12.3815 13.9934C12.1642 13.7779 11.9477 13.5631 11.7311 13.3491C11.1693 12.7939 10.0511 11.6774 10.0511 11.6774L9.98898 11.6157L9.90494 11.6378C7.24893 12.3377 4.84959 12.9599 2.38892 13.4961C1.95736 13.5898 1.44705 13.6979 0.939021 13.7863L0.763367 13.8167L0.820908 13.9866C0.94432 14.3514 1.10786 14.6964 1.23733 14.9561L1.282 15.0452L1.38118 15.0406C3.15741 14.9553 4.94877 14.5219 6.68033 14.1038C6.95668 14.0368 7.23228 13.9706 7.5056 13.9058C8.09692 13.7657 9.20081 13.4938 9.50972 13.4169C9.80727 13.7086 10.1056 14.0056 10.4054 14.3034C12.0628 15.9515 13.7769 17.6551 15.7129 18.9331L15.7977 18.9894L15.8817 18.9323C16.1937 18.7198 16.47 18.5165 16.7259 18.3109L16.8713 18.1936L16.7282 18.0732C15.2101 16.7999 13.7724 15.3734 12.3815 13.9934Z" fill="#D51C54"/>
<path d="M14.6824 11.4737L14.4599 11.2354C14.0654 10.8134 13.3181 10.0366 13.1031 9.81272C13.2674 9.17299 14.3228 5.02766 14.659 2.85179C14.7377 2.34305 14.7869 1.9158 14.8157 1.50835L14.8233 1.40554L14.7309 1.35984C14.4114 1.20295 14.0813 1.06358 13.7512 0.944775L13.577 0.882324L13.549 1.06663C13.2712 2.91501 12.773 4.77176 12.2914 6.56759C12.1711 7.01769 12.0507 7.46626 11.9333 7.91408C11.7334 8.681 11.3269 10.2133 11.3269 10.2133L11.3041 10.2986L11.3662 10.3611C13.0773 12.0861 14.9035 13.952 16.6639 15.907C17.0099 16.2916 17.368 16.6899 17.6988 17.1049L17.8124 17.2481L17.932 17.1103C18.1531 16.8567 18.3734 16.5756 18.5877 16.2763L18.6498 16.1887L18.5892 16.0996C17.4475 14.4287 16.0415 12.9261 14.6824 11.4737Z" fill="#D51C54"/>
<path d="M7.13072 10.4642C7.89466 10.2502 9.42709 9.83517 9.42709 9.83517L9.51189 9.81232L9.68527 9.16725C10.3061 6.85887 10.9474 4.47205 11.6841 2.15987C11.8469 1.64808 12.0165 1.15305 12.1868 0.689238L12.2497 0.517881L12.071 0.485132C11.7129 0.419636 11.3608 0.37394 11.0239 0.351093L10.9217 0.344238L10.877 0.437152C10.0245 2.19414 9.46268 4.11791 8.91982 5.97924L8.74795 6.56642C8.58289 7.12924 8.28383 8.18252 8.19827 8.48335L8.08849 8.51457C5.97837 9.11851 3.79633 9.74302 1.71119 10.5457C1.23269 10.73 0.765539 10.9151 0.318833 11.152L0.229492 11.1992L0.237821 11.2997C0.267349 11.6645 0.310505 12.0179 0.36729 12.3499L0.398332 12.532L0.5702 12.468C2.44485 11.7681 4.41566 11.2205 6.32135 10.6904L7.13072 10.4642Z" fill="#D51C54"/>
<path d="M25.5464 17.8195H28.1139V8.44434H26.7101H25.5464H24.2972V10.6758H25.5464V17.8195Z" fill="#D51C54"/>
<path d="M34.5706 18.0241C37.3917 18.0241 39.4867 15.9 39.4867 13.2832V13.2489C39.4867 10.6321 37.4084 8.5415 34.604 8.5415C31.7829 8.5415 29.6879 10.6656 29.6879 13.2824V13.3167C29.6879 15.9343 31.7662 18.0241 34.5706 18.0241ZM32.222 13.2489C32.222 11.9062 33.1003 10.7676 34.5706 10.7676C35.9895 10.7676 36.9526 11.9405 36.9526 13.2824V13.3167C36.9526 14.6594 36.0743 15.7979 34.604 15.7979C33.1851 15.7979 32.222 14.6251 32.222 13.2832V13.2489Z" fill="#D51C54"/>
<path d="M43.61 6.38281H41.0419V15.2371C41.0419 17.3444 42.1064 17.9727 43.6774 17.9727C44.539 17.9727 45.4847 17.9727 45.4847 17.9727V15.9408C45.4847 15.9408 44.9108 15.9408 44.4376 15.9408C43.8629 15.9408 43.61 15.6521 43.61 15.0573V10.6607H45.5165V8.4292H43.61V6.38281Z" fill="#D51C54"/>
<path d="M50.8512 8.5415C48.2157 8.5415 46.3743 10.6823 46.3743 13.2824V13.3167C46.3743 16.1033 48.3845 18.0241 51.1049 18.0241C52.7433 18.0241 53.96 17.3782 54.805 16.3249L53.3354 15.0165C52.6259 15.6791 52.0006 15.951 51.1389 15.951C49.9904 15.951 49.1795 15.3395 48.9258 14.1666H55.2274C55.2441 13.929 55.2615 13.6906 55.2615 13.4865C55.2607 10.904 53.8752 8.5415 50.8512 8.5415ZM48.8918 12.552C49.0947 11.3792 49.7875 10.6146 50.8512 10.6146C51.9324 10.6146 52.6085 11.3959 52.76 12.552H48.8918Z" fill="#D51C54"/>
<path d="M61.5623 15.7979C60.1601 15.7979 59.2644 14.6761 59.2644 13.2832V13.2489C59.2644 11.9062 60.1767 10.7676 61.4608 10.7676C62.3732 10.7676 62.9478 11.1583 63.5217 11.7699L65.0928 10.0708C64.2478 9.11879 63.1841 8.5415 61.4775 8.5415C58.7071 8.5415 56.7303 10.6823 56.7303 13.2824V13.3167C56.7303 15.9167 58.7238 18.0241 61.4434 18.0241C63.2514 18.0241 64.2645 17.3272 65.1435 16.3585L63.6398 14.8292C63.0145 15.424 62.4239 15.7979 61.5623 15.7979Z" fill="#D51C54"/>
<path d="M71.7139 8.54136C70.4131 8.54136 69.653 9.23822 69.0617 10.0029V5.41504H67.5406H66.4935H65.1276V7.6465H66.4935V17.8206H69.0617V12.7392C69.0617 11.5154 69.6871 10.8871 70.6668 10.8871C71.6465 10.8871 72.2212 11.5161 72.2212 12.7392V17.8206H74.7886V11.9236C74.7886 9.83302 73.6567 8.54136 71.7139 8.54136Z" fill="#D51C54"/>
<path d="M28.1146 5.41113H25.5464V7.59309H28.1146V5.41113Z" fill="#D51C54"/>
<path d="M45.5172 19.3101H25.5464V20.7342H45.5172V19.3101Z" fill="#D51C54"/>
</svg>
