<svg width="158" height="54" viewBox="0 0 158 54" fill="none" xmlns="http://www.w3.org/2000/svg">
<path d="M74.5503 24.1267C68.6471 24.1267 64.2421 28.554 64.2421 34.0099V34.077C64.2421 39.5329 68.6024 43.8708 74.4609 43.8708C80.3641 43.8708 84.7691 39.4435 84.7691 33.9876V33.9205C84.7915 28.4646 80.4311 24.1267 74.5503 24.1267ZM79.4696 34.0547C79.4696 36.8497 77.6361 39.2199 74.5503 39.2199C71.5763 39.2199 69.5639 36.7826 69.5639 33.9876V33.9205C69.5639 31.1255 71.3975 28.7553 74.4832 28.7553C77.4572 28.7553 79.4696 31.1925 79.4696 33.9876V34.0547Z" fill="#D51C54"/>
<path d="M98.5208 18.6708H80.7218V23.7018H86.8933V43.4459H92.3493V23.7018H98.5208V18.6708Z" fill="#D51C54"/>
<path d="M104.737 24.1267C99.2141 24.1267 95.368 28.5764 95.368 34.0099V34.077C95.368 39.8907 99.5718 43.8708 105.274 43.8708C108.717 43.8708 111.244 42.5292 113.033 40.3379L109.947 37.6099C108.471 38.9963 107.152 39.5553 105.341 39.5553C102.926 39.5553 101.227 38.2807 100.712 35.8435H113.905C113.95 35.3516 113.972 34.8596 113.972 34.4348C113.972 29.046 111.065 24.1267 104.737 24.1267ZM100.623 32.4671C101.048 30.0298 102.501 28.4422 104.737 28.4422C106.996 28.4422 108.427 30.0745 108.74 32.4671H100.623Z" fill="#D51C54"/>
<path d="M126.136 39.2422C123.207 39.2422 121.329 36.9168 121.329 34.0099V33.9428C121.329 31.1478 123.229 28.7776 125.935 28.7776C127.836 28.7776 129.043 29.5826 130.251 30.8571L133.538 27.3242C131.771 25.3341 129.535 24.149 125.957 24.149C120.144 24.149 116.007 28.5987 116.007 34.0323V34.0994C116.007 39.5105 120.188 43.8932 125.89 43.8932C129.669 43.8932 131.793 42.4397 133.649 40.4273L130.497 37.2522C129.177 38.4596 127.925 39.2422 126.136 39.2422Z" fill="#D51C54"/>
<path d="M145.948 24.1267C143.22 24.1267 141.632 25.5801 140.402 27.1677V17.7764H135.013V43.4459H140.402V32.8695C140.402 30.3205 141.722 29.0012 143.756 29.0012C145.814 29.0012 147.021 30.3205 147.021 32.8695V43.4459H152.41V31.1702C152.388 26.8099 150.017 24.1267 145.948 24.1267Z" fill="#D51C54"/>
<path d="M62.1625 18.6708H56.7065V43.4459H62.1625V18.6708Z" fill="#D51C54"/>
<path d="M48.7238 26.9217C48.1647 25.3565 47.1585 23.9478 46.2641 22.5615C46.7113 18.4472 46.5101 16.882 43.4914 13.282C44.2293 16.636 43.6703 20.1019 43.4467 23.4559C44.5647 24.7528 47.3821 28.6435 48.3436 32.0199C48.5672 30.3652 48.7908 28.5764 48.7238 26.9217Z" fill="#D51C54"/>
<path d="M41.9262 11.7839C41.1212 11.0237 40.115 10.2411 39.0193 9.48083C39.4665 14.7579 38.0578 19.9678 36.9622 25.0883C40.4504 28.9342 44.4977 32.7802 46.2642 37.5653C46.8679 36.3131 47.4269 35.0162 47.7176 34.01C45.9735 30.1417 43.0666 26.6759 40.6964 24.0597C41.5908 19.856 42.3511 15.7641 41.9262 11.7839Z" fill="#D51C54"/>
<path d="M19.9457 20.482C21.5557 15.5181 23.0985 10.3081 26.0278 5.94788C24.6861 6.08204 23.3221 6.26092 22.3606 6.50688C19.9233 9.83856 18.537 13.841 17.1953 17.7317C13.3717 19.0957 9.23497 20.2808 6.1492 22.8746C5.90324 23.9255 5.72435 25.2224 5.61255 26.5417C9.6151 23.7243 14.5792 22.1814 18.9395 20.8174L19.9457 20.482Z" fill="#D51C54"/>
<path d="M24.5296 37.5428C19.4984 38.5491 14.2884 39.846 9.16785 39.3764C9.79394 40.3379 10.5095 41.277 11.4039 42.2385C15.4735 42.7304 19.5655 41.9031 23.5457 41.2546C26.5868 43.8708 29.6949 46.6211 33.4067 48.1863C34.7931 47.7615 35.7322 47.359 36.8279 46.8223C32.7359 45.0782 29.2029 41.8584 26.1172 39.0186C25.5805 38.5043 25.0439 38.0124 24.5296 37.5428Z" fill="#D51C54"/>
<path d="M26.5868 29.7168C19.7892 31.4609 13.4611 33.205 6.75293 34.4124C7.08834 35.4857 7.58027 36.5814 7.98276 37.3193C13.6176 37.0733 19.8115 35.2174 25.4688 33.8982C29.6949 38.0125 33.8763 42.4398 38.8404 45.6597C39.7572 45.0559 40.5845 44.4298 41.3895 43.759C37.9683 40.9416 34.6366 37.6547 31.7074 34.7926C30.3657 33.451 27.0564 30.1864 26.5868 29.7168Z" fill="#D51C54"/>
<path d="M33.3397 26.0721C34.3459 22.0249 36.6938 13.1702 36.9621 8.31807C36.0677 7.84851 35.0391 7.44602 33.9881 7.08826C33.1161 13.2597 30.7235 20.9069 29.1135 27.2125C33.854 32.0199 38.7733 36.8497 43.1113 42.082C43.8492 41.2771 44.52 40.4497 45.1014 39.5777C42.6417 35.933 39.5783 32.6684 36.6043 29.5156C35.7546 28.5765 34.0776 26.8324 33.3397 26.0721Z" fill="#D51C54"/>
<path d="M25.67 26.2733C27.4812 19.6547 29.2029 12.8571 31.5732 6.4174C30.4551 6.1938 29.3818 6.03727 28.398 5.99255C25.8265 11.2025 24.2836 17.4634 22.5842 23.1876C16.9046 24.8646 11.0238 26.3404 5.65723 28.9342C5.72431 30.0075 5.85847 31.0584 6.05972 32.087C10.7778 30.2981 15.6971 29.0012 20.5047 27.6596C22.383 27.1453 25.3793 26.3404 25.67 26.2733Z" fill="#D51C54"/>
<path d="M20.2364 6.99878C18.6936 7.69195 17.0612 8.40748 15.6749 9.32425C14.6239 10.5988 13.9307 12.1864 13.2152 13.6845C9.45863 15.4286 8.22879 16.3901 6.68591 20.8398C9.16794 18.4696 12.4326 17.1727 15.4065 15.6298C15.9432 13.9975 17.8439 9.57021 20.2364 6.99878Z" fill="#D51C54"/>
<path d="M12.8798 43.6696C14.2214 44.6758 15.6748 45.7491 17.1283 46.5093C18.7606 46.8 20.4824 46.6211 22.1371 46.5317C25.4911 48.969 26.9446 49.5503 31.5732 48.723C28.3086 47.6944 25.5582 45.5031 22.7408 43.6472C21.0637 43.9826 16.2786 44.4969 12.8798 43.6696Z" fill="#D51C54"/>
</svg>
