<svg width="188" height="64" viewBox="0 0 188 64" fill="none" xmlns="http://www.w3.org/2000/svg">
<path d="M88.7053 28.5947C81.6813 28.5947 76.4398 33.8419 76.4398 40.3082V40.3877C76.4398 46.8539 81.628 51.9951 88.5989 51.9951C95.623 51.9951 100.864 46.7479 100.864 40.2817V40.2022C100.891 33.7359 95.7028 28.5947 88.7053 28.5947ZM94.5587 40.3612C94.5587 43.6738 92.377 46.4829 88.7053 46.4829C85.1667 46.4829 82.7721 43.5943 82.7721 40.2817V40.2022C82.7721 36.8895 84.9538 34.0804 88.6255 34.0804C92.1641 34.0804 94.5587 36.9691 94.5587 40.2817V40.3612Z" fill="#D51C54"/>
<path d="M117.227 22.1284H96.0486V28.0912H103.392V51.4916H109.884V28.0912H117.227V22.1284Z" fill="#D51C54"/>
<path d="M124.624 28.5947C118.052 28.5947 113.476 33.8684 113.476 40.3082V40.3877C113.476 47.278 118.478 51.9951 125.262 51.9951C129.36 51.9951 132.366 50.4051 134.495 47.808L130.823 44.5748C129.067 46.2179 127.497 46.8804 125.342 46.8804C122.469 46.8804 120.447 45.3699 119.835 42.4813H135.532C135.586 41.8982 135.612 41.3152 135.612 40.8117C135.612 34.425 132.153 28.5947 124.624 28.5947ZM119.728 38.4796C120.234 35.591 121.963 33.7094 124.624 33.7094C127.311 33.7094 129.014 35.644 129.386 38.4796H119.728Z" fill="#D51C54"/>
<path d="M150.086 46.5093C146.601 46.5093 144.366 43.7532 144.366 40.3081V40.2285C144.366 36.9159 146.627 34.1068 149.847 34.1068C152.108 34.1068 153.545 35.0608 154.982 36.5714L158.893 32.3842C156.791 30.0256 154.13 28.6211 149.873 28.6211C142.956 28.6211 138.033 33.8948 138.033 40.3346V40.4141C138.033 46.8273 143.009 52.0215 149.793 52.0215C154.29 52.0215 156.817 50.2989 159.026 47.9139L155.274 44.1507C153.704 45.5818 152.215 46.5093 150.086 46.5093Z" fill="#D51C54"/>
<path d="M173.659 28.5947C170.413 28.5947 168.524 30.3172 167.061 32.1988V21.0684H160.649V51.4915H167.061V38.9566C167.061 35.9354 168.631 34.3719 171.052 34.3719C173.5 34.3719 174.936 35.9354 174.936 38.9566V51.4915H181.348V36.9425C181.322 31.7748 178.502 28.5947 173.659 28.5947Z" fill="#D51C54"/>
<path d="M73.9654 22.1284H67.4735V51.4916H73.9654V22.1284Z" fill="#D51C54"/>
<path d="M57.9751 31.9073C57.3099 30.0523 56.1126 28.3827 55.0484 26.7396C55.5805 21.8634 55.341 20.0084 51.7492 15.7417C52.6272 19.7169 51.962 23.8245 51.696 27.7997C53.0263 29.3367 56.3787 33.9479 57.5228 37.9496C57.7888 35.9885 58.0549 33.8684 57.9751 31.9073Z" fill="#D51C54"/>
<path d="M49.8868 13.9659C48.9289 13.0649 47.7316 12.1374 46.4279 11.2363C46.9601 17.4906 45.2839 23.6653 43.9802 29.734C48.1307 34.2922 52.9465 38.8504 55.0484 44.5216C55.7667 43.0376 56.4319 41.5005 56.7778 40.308C54.7025 35.7233 51.2437 31.6156 48.4234 28.515C49.4877 23.5328 50.3923 18.6831 49.8868 13.9659Z" fill="#D51C54"/>
<path d="M23.7328 24.275C25.6484 18.3918 27.4843 12.217 30.9697 7.04932C29.3733 7.20832 27.7503 7.42033 26.6063 7.71184C23.7062 11.6605 22.0566 16.4042 20.4602 21.0154C15.9105 22.6319 10.9884 24.0365 7.31671 27.1106C7.02404 28.3562 6.81119 29.8932 6.67816 31.4568C11.4407 28.1176 17.3473 26.2891 22.5355 24.6725L23.7328 24.275Z" fill="#D51C54"/>
<path d="M29.1871 44.4951C23.2007 45.6877 17.0014 47.2247 10.9086 46.6682C11.6535 47.8077 12.5049 48.9208 13.5692 50.0603C18.4115 50.6434 23.2805 49.6628 28.0164 48.8943C31.6349 51.9949 35.3331 55.2545 39.7498 57.1096C41.3994 56.6061 42.5168 56.1291 43.8205 55.493C38.9516 53.426 34.7478 49.6098 31.0761 46.2442C30.4376 45.6347 29.799 45.0516 29.1871 44.4951Z" fill="#D51C54"/>
<path d="M31.6349 35.2197C23.5466 37.2868 16.017 39.3539 8.0351 40.7849C8.43419 42.057 9.01953 43.3555 9.49844 44.2301C16.2032 43.9386 23.5732 41.739 30.3046 40.1754C35.3331 45.0516 40.3085 50.2988 46.2151 54.115C47.306 53.3994 48.2904 52.6574 49.2482 51.8624C45.1775 48.5232 41.2131 44.6276 37.7277 41.2355C36.1313 39.6454 32.1936 35.7762 31.6349 35.2197Z" fill="#D51C54"/>
<path d="M39.6699 30.9003C40.8672 26.1036 43.6609 15.6092 43.9802 9.85844C42.9159 9.30191 41.692 8.8249 40.4415 8.40088C39.4039 15.7152 36.557 24.7785 34.6414 32.2518C40.2819 37.9495 46.1353 43.6738 51.2969 49.875C52.1749 48.921 52.9731 47.9404 53.6649 46.9069C50.7382 42.5872 47.0931 38.7181 43.5545 34.9814C42.5434 33.8684 40.548 31.8013 39.6699 30.9003Z" fill="#D51C54"/>
<path d="M30.544 31.139C32.6991 23.2947 34.7478 15.2384 37.5681 7.60606C36.2378 7.34105 34.9607 7.15554 33.79 7.10254C30.7303 13.2773 28.8944 20.6976 26.8723 27.4818C20.1143 29.4694 13.1169 31.2185 6.73138 34.2926C6.8112 35.5646 6.97084 36.8102 7.2103 38.0292C12.8242 35.9092 18.6776 34.3721 24.398 32.782C26.6329 32.1725 30.1981 31.2185 30.544 31.139Z" fill="#D51C54"/>
<path d="M24.0787 8.29492C22.2428 9.11645 20.3006 9.96449 18.651 11.051C17.4005 12.5616 16.5757 14.4432 15.7243 16.2187C11.2544 18.2858 9.79109 19.4254 7.95526 24.6991C10.9086 21.89 14.7931 20.3529 18.3317 18.5243C18.9703 16.5897 21.2318 11.3425 24.0787 8.29492Z" fill="#D51C54"/>
<path d="M15.3252 51.7565C16.9216 52.949 18.651 54.2211 20.3804 55.1221C22.3226 55.4666 24.3713 55.2546 26.3402 55.1486C30.3311 58.0372 32.0605 58.7263 37.5681 57.7457C33.6835 56.5267 30.411 53.9296 27.0586 51.73C25.0631 52.1275 19.3694 52.737 15.3252 51.7565Z" fill="#D51C54"/>
</svg>
