<svg width="106" height="36" viewBox="0 0 106 36" fill="none" xmlns="http://www.w3.org/2000/svg">
<path d="M50.0147 16.0845C46.0543 16.0845 43.0991 19.036 43.0991 22.6733V22.718C43.0991 26.3553 46.0243 29.2472 49.9547 29.2472C53.9151 29.2472 56.8704 26.2957 56.8704 22.6584V22.6137C56.8854 18.9764 53.9601 16.0845 50.0147 16.0845ZM53.315 22.7031C53.315 24.5665 52.0849 26.1466 50.0147 26.1466C48.0195 26.1466 46.6694 24.5217 46.6694 22.6584V22.6137C46.6694 20.7503 47.8995 19.1702 49.9697 19.1702C51.9649 19.1702 53.315 20.795 53.315 22.6584V22.7031Z" fill="white"/>
<path d="M66.0962 12.4473H54.1551V15.8013H58.2955V28.964H61.9558V15.8013H66.0962V12.4473Z" fill="white"/>
<path d="M70.2666 16.0845C66.5613 16.0845 63.981 19.0509 63.981 22.6733V22.718C63.981 26.5938 66.8013 29.2472 70.6266 29.2472C72.9369 29.2472 74.632 28.3528 75.8321 26.8919L73.7619 25.0733C72.7718 25.9975 71.8868 26.3702 70.6717 26.3702C69.0515 26.3702 67.9114 25.5205 67.5664 23.8957H76.4172C76.4472 23.5677 76.4622 23.2398 76.4622 22.9565C76.4622 19.364 74.512 16.0845 70.2666 16.0845ZM67.5064 21.6447C67.7914 20.0199 68.7665 18.9615 70.2666 18.9615C71.7818 18.9615 72.7418 20.0497 72.9519 21.6447H67.5064Z" fill="white"/>
<path d="M84.623 26.1617C82.6578 26.1617 81.3977 24.6114 81.3977 22.6735V22.6288C81.3977 20.7654 82.6728 19.1853 84.488 19.1853C85.7631 19.1853 86.5732 19.722 87.3832 20.5717L89.5884 18.2164C88.4033 16.8897 86.9032 16.0996 84.503 16.0996C80.6026 16.0996 77.8273 19.0661 77.8273 22.6884V22.7332C77.8273 26.3406 80.6326 29.2623 84.458 29.2623C86.9932 29.2623 88.4183 28.2934 89.6635 26.9518L87.5482 24.835C86.6632 25.64 85.8231 26.1617 84.623 26.1617Z" fill="white"/>
<path d="M97.9142 16.0846C96.0841 16.0846 95.019 17.0536 94.1939 18.1119V11.8511H90.5786V28.9641H94.1939V21.9132C94.1939 20.2138 95.079 19.3343 96.4441 19.3343C97.8242 19.3343 98.6343 20.2138 98.6343 21.9132V28.9641H102.25V20.7803C102.235 17.8734 100.645 16.0846 97.9142 16.0846Z" fill="white"/>
<path d="M41.7039 12.4473H38.0436V28.964H41.7039V12.4473Z" fill="white"/>
<path d="M32.6881 17.9481C32.3131 16.9047 31.638 15.9655 31.0379 15.0413C31.338 12.2985 31.203 11.255 29.1778 8.85498C29.6728 11.091 29.2978 13.4016 29.1478 15.6376C29.8978 16.5022 31.788 19.096 32.4331 21.3469C32.5831 20.2438 32.7331 19.0513 32.6881 17.9481Z" fill="white"/>
<path d="M28.1277 7.8562C27.5876 7.34937 26.9126 6.82763 26.1775 6.3208C26.4775 9.83881 25.5324 13.3121 24.7974 16.7258C27.1376 19.2897 29.8528 21.8537 31.038 25.0438C31.443 24.209 31.818 23.3444 32.013 22.6736C30.8429 20.0947 28.8927 17.7842 27.3026 16.0401C27.9027 13.2376 28.4127 10.5096 28.1277 7.8562Z" fill="white"/>
<path d="M13.3813 13.6548C14.4614 10.3455 15.4965 6.87216 17.4617 3.96533C16.5616 4.05477 15.6465 4.17403 15.0014 4.338C13.3663 6.55912 12.4362 9.22745 11.5361 11.8212C8.97087 12.7306 6.19561 13.5206 4.12541 15.2498C3.9604 15.9504 3.84039 16.815 3.76538 17.6945C6.45063 15.8163 9.78095 14.7877 12.7062 13.8784L13.3813 13.6548Z" fill="white"/>
<path d="M16.4566 25.0288C13.0813 25.6996 9.58596 26.5642 6.15063 26.2512C6.57067 26.8922 7.05072 27.5182 7.65078 28.1592C10.381 28.4872 13.1263 27.9356 15.7965 27.5033C17.8367 29.2474 19.9219 31.081 22.4122 32.1245C23.3423 31.8412 23.9723 31.5729 24.7074 31.2151C21.9621 30.0524 19.5919 27.9058 17.5217 26.0127C17.1617 25.6698 16.8016 25.3419 16.4566 25.0288Z" fill="white"/>
<path d="M17.8367 19.8115C13.2763 20.9743 9.03088 22.137 4.53046 22.942C4.75548 23.6575 5.08551 24.3879 5.35553 24.8798C9.13589 24.7159 13.2913 23.4786 17.0866 22.5991C19.9219 25.342 22.7272 28.2935 26.0575 30.4401C26.6725 30.0376 27.2276 29.6202 27.7677 29.173C25.4724 27.2948 23.2372 25.1035 21.272 23.1954C20.372 22.301 18.1517 20.1246 17.8367 19.8115Z" fill="white"/>
<path d="M22.3671 17.3815C23.0422 14.6833 24.6173 8.78024 24.7974 5.54546C24.1973 5.23242 23.5072 4.9641 22.8022 4.72559C22.2171 8.83987 20.612 13.938 19.5319 18.1417C22.7122 21.3467 26.0125 24.5666 28.9227 28.0548C29.4178 27.5181 29.8678 26.9666 30.2579 26.3852C28.6077 23.9554 26.5525 21.779 24.5573 19.6771C23.9873 19.0511 22.8622 17.8883 22.3671 17.3815Z" fill="white"/>
<path d="M17.2217 17.5156C18.4368 13.1032 19.5919 8.57152 21.1821 4.27835C20.432 4.12928 19.7119 4.02493 19.0519 3.99512C17.3267 7.46841 16.2916 11.6423 15.1515 15.4585C11.3411 16.5765 7.39575 17.5603 3.79541 19.2895C3.84041 20.0051 3.93042 20.7057 4.06544 21.3914C7.23073 20.1988 10.531 19.3342 13.7563 18.4398C15.0165 18.097 17.0267 17.5603 17.2217 17.5156Z" fill="white"/>
<path d="M13.5763 4.66602C12.5412 5.12813 11.4461 5.60515 10.516 6.21633C9.81098 7.06602 9.34593 8.1244 8.86589 9.12316C6.34565 10.2859 5.52057 10.9269 4.48547 13.8933C6.15063 12.3132 8.34084 11.4486 10.336 10.4201C10.6961 9.33185 11.9712 6.3803 13.5763 4.66602Z" fill="white"/>
<path d="M8.64087 29.1131C9.54095 29.7839 10.516 30.4994 11.4911 31.0062C12.5862 31.2 13.7414 31.0808 14.8515 31.0211C17.1017 32.646 18.0768 33.0335 21.1821 32.482C18.9918 31.7963 17.1467 30.3354 15.2565 29.0981C14.1314 29.3217 10.9211 29.6646 8.64087 29.1131Z" fill="white"/>
</svg>
