<svg width="336" height="122" viewBox="0 0 336 122" fill="none" xmlns="http://www.w3.org/2000/svg">
<path d="M83.2832 53.8871C81.1776 49.5713 81.4912 44.2187 84.0896 40.2163C86.128 37.082 89.264 35.0326 92.7136 34.5744C90.6528 34.8397 88.6592 35.6594 86.9344 36.9855C86.0832 37.6606 85.3216 38.408 84.448 39.059C83.552 39.7341 82.6112 40.361 81.648 40.9156C79.6768 42.0488 77.5712 42.8926 75.3984 43.4472C73.472 43.9294 71.4784 44.1705 69.5072 44.1705C67.536 44.1705 65.5424 43.9294 63.616 43.4472C61.4432 42.8926 59.3376 42.0488 57.3664 40.9156C56.4032 40.361 55.4624 39.7341 54.5664 39.059C53.6928 38.408 52.9312 37.6365 52.08 36.9855C48.4064 34.1163 43.456 33.6582 39.4016 35.8282C35.504 37.9017 32.8608 42.0488 32.5248 46.7262C32.1888 51.4519 34.2496 55.9606 37.8336 58.661C41.552 61.4578 46.5248 61.7954 50.5344 59.529C51.4976 58.9986 52.3936 58.3235 53.1776 57.5278C53.984 56.8286 54.88 56.1535 55.776 55.5507C57.6576 54.2729 59.6736 53.2843 61.8016 52.561C64.3104 51.7171 66.9312 51.3073 69.5296 51.3073C72.128 51.3073 74.7264 51.7171 77.2576 52.561C79.3632 53.2602 81.4016 54.2729 83.2832 55.5507C84.0448 56.0571 84.7616 56.6116 85.4784 57.1903C85.3664 57.0456 85.2768 56.9009 85.1648 56.7563C84.4032 55.8883 83.776 54.8997 83.2832 53.8871Z" fill="#00D8DD"/>
<path d="M14.3136 62.6145C18.368 60.4445 23.3408 60.9026 26.992 63.7718C27.5072 64.1817 27.9776 64.6157 28.4704 65.0256C28.224 64.688 27.9776 64.3746 27.7536 64.0129C27.1264 63.0485 26.544 62.0358 26.0288 60.9991C24.976 58.8773 24.192 56.6109 23.6768 54.2722C23.2288 52.1987 23.0048 50.0528 23.0048 47.9311C23.0048 45.8094 23.2288 43.6635 23.6768 41.59C24.192 39.2513 24.976 36.9849 26.0288 34.8631C26.544 33.8264 27.1264 32.8137 27.7536 31.8493C28.0224 31.4635 28.2912 31.0777 28.56 30.7161C28.3808 30.8607 28.224 31.0054 28.0448 31.1501C27.2608 31.9457 26.3424 32.6208 25.4016 33.1513C21.392 35.4177 16.4192 35.0801 12.7008 32.2833C10.2592 30.4509 8.5344 27.7746 7.7728 24.7607C7.9968 25.7011 8.3328 26.6414 8.7584 27.5335C9.2512 28.5702 9.8784 29.5347 10.6176 30.3785C11.2672 31.2465 11.8944 32.2109 12.4544 33.1754C13.6416 35.2007 14.56 37.3706 15.232 39.6611C16.016 42.3615 16.3968 45.1825 16.3968 47.9793C16.3968 50.7762 16.016 53.573 15.232 56.2975C14.5824 58.5639 13.6416 60.758 12.4544 62.7833C11.8944 63.7477 11.2672 64.688 10.6176 65.5801C9.8784 66.424 9.2512 67.4125 8.7584 68.4252C7.8848 70.2335 7.4368 72.2105 7.392 74.2117C7.392 73.9947 7.392 73.7777 7.4144 73.5607C7.7504 68.8109 10.416 64.688 14.3136 62.6145Z" fill="#00D8DD"/>
<path d="M44.4192 78.0944C47.0176 78.0944 49.616 78.5042 52.1472 79.3481C54.2528 80.0473 56.2912 81.06 58.1728 82.3378C59.0688 82.9406 59.9424 83.6157 60.7712 84.3149C61.5552 85.1106 62.4736 85.7857 63.4144 86.3161C67.424 88.5825 72.3968 88.245 76.1152 85.4481C79.6992 82.7477 81.76 78.239 81.424 73.5133C81.088 68.8359 78.4224 64.6888 74.5472 62.6153C70.4928 60.4454 65.52 60.9035 61.8688 63.7726C61.0176 64.4477 60.256 65.1952 59.3824 65.8461C58.4864 66.5212 57.5456 67.1481 56.5824 67.7027C54.6112 68.8359 52.5056 69.6797 50.3328 70.2343C48.4064 70.7165 46.4128 70.9576 44.4416 70.9576C42.4704 70.9576 40.4768 70.7165 38.5504 70.2343C36.3776 69.6797 34.272 68.8359 32.3008 67.7027C31.3376 67.1481 30.3968 66.5212 29.5008 65.8461C29.1648 65.5809 28.8288 65.3157 28.4928 65.0264C28.896 65.5809 29.3216 66.1114 29.7248 66.69C32.3904 70.6442 32.816 75.9726 30.8 80.3367C29.12 84.0015 25.9616 86.6537 22.288 87.4975C23.3856 87.2564 24.4608 86.8465 25.4688 86.292C26.432 85.7616 27.328 85.0865 28.112 84.2908C28.9184 83.5916 29.8144 82.9165 30.7104 82.3137C32.592 81.0359 34.608 80.0473 36.736 79.324C39.2224 78.4801 41.8208 78.0703 44.4192 78.0944Z" fill="#E21073"/>
<path d="M30.7782 80.3601C32.7942 75.9961 32.3686 70.6435 29.703 66.7135C29.3222 66.1348 28.8966 65.6044 28.471 65.0498C27.9782 64.6158 27.5078 64.1818 26.9926 63.7961C23.319 60.9269 18.3686 60.4688 14.3142 62.6388C10.4166 64.7123 7.77341 68.8593 7.43741 73.5368C7.41501 73.7538 7.41501 73.9708 7.41501 74.1878C7.41501 74.2842 7.41501 74.3565 7.41501 74.453C7.41501 74.5494 7.41501 74.6459 7.41501 74.7664C7.41501 74.9593 7.41501 75.1763 7.43741 75.3692C7.43741 75.4174 7.43741 75.4897 7.45981 75.538C7.48221 75.7791 7.50461 75.9961 7.52701 76.2372C7.54941 76.3336 7.54941 76.4542 7.57181 76.5506C7.59421 76.7194 7.61661 76.9123 7.66141 77.081C7.70621 77.298 7.75101 77.515 7.79581 77.7079C7.81821 77.7561 7.81821 77.8285 7.84061 77.8767C8.57981 80.9146 10.3046 83.615 12.7686 85.4474C12.791 85.4474 12.791 85.4716 12.8134 85.4716C13.015 85.6162 13.239 85.785 13.463 85.9055C13.4854 85.9297 13.5302 85.9538 13.5526 85.9538C13.7766 86.0984 14.0006 86.2431 14.2246 86.3637C14.2246 86.3637 14.247 86.3637 14.247 86.3878C16.7334 87.738 19.6006 88.1478 22.3334 87.5451C25.9398 86.6771 29.0982 84.0249 30.7782 80.3601Z" fill="#000E64"/>
<path d="M30.7776 15.5047C32.7936 19.8687 32.368 25.2213 29.7024 29.1513C29.344 29.6818 28.9632 30.1881 28.5824 30.6944C29.2544 30.1399 29.9488 29.6335 30.6656 29.1513C32.5472 27.8735 34.5632 26.8849 36.6912 26.1616C39.2 25.3177 41.8208 24.9078 44.4192 24.9078C47.0176 24.9078 49.616 25.3177 52.1472 26.1616C54.2528 26.8608 56.2912 27.8735 58.1728 29.1513C59.0688 29.7541 59.9424 30.4292 60.7712 31.1284C61.5552 31.924 62.4736 32.5991 63.4144 33.1296C67.424 35.396 72.3968 35.0584 76.1152 32.2616C79.6992 29.5612 81.76 25.0525 81.424 20.3268C81.088 15.6493 78.4224 11.5023 74.5472 9.42879C70.4928 7.25883 65.52 7.71693 61.8688 10.5861C61.0176 11.2612 60.256 12.0086 59.3824 12.6596C58.4864 13.3347 57.5456 13.9616 56.5824 14.5161C54.6112 15.6493 52.5056 16.4932 50.3328 17.0478C48.4064 17.53 46.4128 17.7711 44.4416 17.7711C42.4704 17.7711 40.4768 17.53 38.5504 17.0478C36.3776 16.4932 34.272 15.6493 32.3008 14.5161C31.3376 13.9616 30.3968 13.3347 29.5008 12.6596C28.6272 12.0086 27.8656 11.2371 27.0144 10.5861C26.0736 9.83867 25.0208 9.26002 23.9456 8.85014C26.8576 10.0316 29.344 12.4185 30.7776 15.5047Z" fill="#E21073"/>
<path d="M12.7223 32.2596C16.4407 35.0565 21.4135 35.394 25.4231 33.1276C26.3863 32.5972 27.2823 31.9221 28.0663 31.1264C28.2455 30.9818 28.4023 30.8371 28.5815 30.6924C28.9623 30.1861 29.3431 29.6798 29.7015 29.1494C32.3671 25.1952 32.7927 19.8668 30.7767 15.5027C29.3431 12.3924 26.8567 10.0296 23.8999 8.84818C21.5927 7.95608 19.0615 7.81142 16.6871 8.4624C13.8423 9.25806 11.3111 11.1387 9.58634 13.7909C7.65994 16.7806 6.98794 20.4936 7.63754 23.9897C7.65994 24.0861 7.68234 24.2067 7.70474 24.3031C7.72714 24.4237 7.77194 24.5683 7.79434 24.6889C8.53354 27.7509 10.2807 30.4272 12.7223 32.2596Z" fill="#000E64"/>
<path d="M99.6352 88.9921C103.264 90.9451 105.84 94.6822 106.422 98.9739C106.131 96.8763 105.392 94.8269 104.205 93.0668C103.578 92.1506 102.883 91.3309 102.278 90.3905C101.651 89.4261 101.069 88.4135 100.554 87.3767C99.5008 85.255 98.7168 82.9886 98.2016 80.6498C97.7536 78.5763 97.5296 76.4305 97.5296 74.3087C97.5296 72.187 97.7536 70.0411 98.2016 67.9676C98.7168 65.6289 99.5008 63.3625 100.554 61.2407C101.069 60.204 101.651 59.1913 102.278 58.2269C102.883 57.2866 103.6 56.4668 104.205 55.5506C105.459 53.6941 106.198 51.5483 106.445 49.3301C106.019 53.0431 104.115 56.4427 101.203 58.6127C97.4848 61.4095 92.512 61.7471 88.5024 59.4807C87.5392 58.9502 86.6432 58.2751 85.8592 57.4795C85.7248 57.3589 85.5904 57.2625 85.456 57.1419C85.9936 57.8894 86.5088 58.685 86.9792 59.5048C88.1664 61.5301 89.0848 63.7 89.7568 65.9906C90.5408 68.6909 90.9216 71.5119 90.9216 74.3087C90.9216 77.1056 90.5408 79.9024 89.7568 82.6269C89.1072 84.8933 88.1664 87.0874 86.9792 89.1127C86.5312 89.8842 86.0384 90.6558 85.5232 91.3791C85.9936 90.9692 86.464 90.5593 86.9568 90.1736C90.608 87.2803 95.5808 86.8222 99.6352 88.9921Z" fill="#E21073"/>
<path d="M88.5024 59.5044C92.512 61.7708 97.4848 61.4333 101.203 58.6364C104.115 56.4424 106.019 53.0669 106.445 49.3538V49.3297C106.467 49.0886 106.49 48.8475 106.512 48.6064C106.512 48.5099 106.512 48.4135 106.534 48.3171C106.534 48.1483 106.534 47.9795 106.557 47.8107C106.557 47.642 106.557 47.4973 106.557 47.3285C106.557 47.208 106.557 47.0874 106.534 46.9669C106.534 46.774 106.512 46.5811 106.49 46.3882C106.49 46.2918 106.467 46.1953 106.467 46.123C106.445 45.9301 106.422 45.7131 106.378 45.5202C106.355 45.4238 106.355 45.3273 106.333 45.2309C106.31 45.038 106.266 44.8692 106.221 44.6764C106.198 44.5558 106.176 44.4352 106.131 44.3388C106.086 44.1941 106.042 44.0254 105.997 43.8807C105.952 43.736 105.907 43.5914 105.862 43.4467C105.818 43.3262 105.773 43.2056 105.75 43.085C105.683 42.9163 105.638 42.7716 105.571 42.6028C105.526 42.5064 105.482 42.3858 105.437 42.2894C105.37 42.1206 105.302 41.9518 105.213 41.8072C105.168 41.7107 105.123 41.6143 105.078 41.542C105.011 41.3973 104.922 41.2285 104.832 41.0839C104.765 40.9633 104.698 40.8669 104.653 40.7704C104.586 40.6258 104.496 40.5052 104.406 40.3847C104.339 40.2641 104.25 40.1677 104.182 40.0471C104.093 39.9266 104.026 39.806 103.936 39.6854C103.846 39.5649 103.779 39.4684 103.69 39.3479C103.6 39.2273 103.533 39.1309 103.443 39.0103C103.354 38.9139 103.264 38.7933 103.174 38.6969C103.085 38.6005 102.995 38.4799 102.906 38.3835C102.816 38.287 102.726 38.1906 102.614 38.0941C102.525 37.9977 102.413 37.9013 102.323 37.8048C102.234 37.7084 102.122 37.6119 102.032 37.5396C101.92 37.4432 101.83 37.3467 101.718 37.2744C101.606 37.1779 101.494 37.1056 101.382 37.0092C101.27 36.9368 101.181 36.8404 101.069 36.7681C100.957 36.6716 100.822 36.5993 100.71 36.5269C100.598 36.4546 100.509 36.3823 100.397 36.31C100.262 36.2135 100.106 36.1412 99.9712 36.0688C99.8816 36.0206 99.792 35.9724 99.7024 35.9242C99.5456 35.8518 99.4112 35.7795 99.2544 35.7072C99.1648 35.659 99.0528 35.6107 98.9632 35.5625C98.8064 35.4902 98.672 35.442 98.5152 35.3696C98.4032 35.3214 98.2912 35.2732 98.1792 35.225C98.0448 35.1767 97.9104 35.1285 97.7984 35.0803C97.664 35.0321 97.5072 34.9839 97.3728 34.9356C97.2608 34.9115 97.1712 34.8874 97.0592 34.8392C96.88 34.791 96.7232 34.7428 96.544 34.7186C96.4544 34.6945 96.3648 34.6945 96.2752 34.6704C96.096 34.6463 95.8944 34.5981 95.7152 34.574C95.6256 34.574 95.536 34.5499 95.4464 34.5499C95.2672 34.5258 95.088 34.5258 94.9088 34.5017C94.7968 34.5017 94.6848 34.5016 94.5728 34.4775C94.416 34.4775 94.2816 34.4775 94.1248 34.4775C93.968 34.4775 93.8112 34.4775 93.6544 34.5017C93.5648 34.5017 93.4752 34.5016 93.3856 34.5258C93.1616 34.5499 92.9376 34.574 92.7136 34.5981H92.6912C89.2416 35.0562 86.0832 37.1056 84.0672 40.24C81.4688 44.2424 81.1552 49.5949 83.2608 53.9107C83.7536 54.9475 84.3808 55.9119 85.12 56.7558C85.232 56.9005 85.3216 57.0451 85.4336 57.1898C85.568 57.3103 85.7024 57.4068 85.8368 57.5273C86.6432 58.2989 87.5392 58.974 88.5024 59.5044Z" fill="#000E64"/>
<path d="M84.0896 108.425C81.4912 104.422 81.1776 99.0699 83.2832 94.754C83.776 93.7173 84.4032 92.7529 85.1424 91.909C85.2768 91.7402 85.3888 91.5714 85.5232 91.3786C85.1872 91.6679 84.8288 91.9813 84.4704 92.2465C83.5744 92.9216 82.6336 93.5485 81.6704 94.1031C79.6992 95.2363 77.5936 96.0801 75.4208 96.6347C73.4944 97.1169 71.5008 97.358 69.5296 97.358C67.5584 97.358 65.5648 97.1169 63.6384 96.6347C61.4656 96.0801 59.36 95.2363 57.3888 94.1031C56.4256 93.5485 55.4848 92.9216 54.5888 92.2465C53.7152 91.5955 52.9536 90.824 52.1024 90.173C48.4288 87.3038 43.4784 86.8457 39.424 89.0157C35.5264 91.0892 32.8832 95.2363 32.5472 99.9137C32.2112 104.639 34.272 109.148 37.856 111.849C41.5744 114.645 46.5472 114.983 50.5568 112.716C51.52 112.186 52.416 111.511 53.2 110.715C54.0064 110.016 54.9024 109.341 55.7984 108.738C57.68 107.46 59.696 106.472 61.824 105.749C64.3328 104.905 66.9536 104.495 69.552 104.495C72.1504 104.495 74.7488 104.905 77.28 105.749C79.3856 106.448 81.424 107.46 83.3056 108.738C84.2016 109.341 85.0752 110.016 85.904 110.715C86.688 111.511 87.6064 112.186 88.5472 112.716C90.1152 113.609 91.84 114.091 93.5648 114.187C89.7568 113.922 86.2624 111.8 84.0896 108.425Z" fill="#00D8DD"/>
<path d="M106.512 101.915C106.512 101.818 106.534 101.722 106.534 101.601C106.534 101.457 106.534 101.288 106.534 101.143C106.534 100.999 106.534 100.854 106.534 100.709C106.534 100.565 106.534 100.42 106.512 100.275C106.512 100.131 106.512 99.9861 106.49 99.8414C106.467 99.6485 106.445 99.4556 106.422 99.2386C106.422 99.1663 106.4 99.0699 106.4 98.9975C105.818 94.7058 103.242 90.9446 99.6128 89.0157C95.5584 86.8457 90.5856 87.3038 86.9344 90.173C86.4416 90.5588 85.9712 90.9687 85.5008 91.3786C85.3664 91.5473 85.2544 91.7402 85.12 91.909C84.3808 92.7529 83.7536 93.7414 83.2608 94.754C81.1552 99.0699 81.4688 104.422 84.0672 108.425C86.2624 111.8 89.7344 113.922 93.4976 114.163C93.52 114.163 93.5648 114.163 93.5872 114.163C93.7888 114.163 94.0128 114.187 94.2144 114.187C94.4384 114.187 94.6624 114.187 94.864 114.163C94.8864 114.163 94.9088 114.163 94.9536 114.163C97.1488 114.018 99.3216 113.223 101.181 111.849C101.203 111.849 101.203 111.824 101.226 111.824C104.115 109.63 105.997 106.279 106.445 102.566C106.445 102.566 106.445 102.566 106.445 102.542C106.467 102.301 106.49 102.108 106.512 101.915Z" fill="#000E64"/>
<path d="M132.496 84.58C134.086 86.1472 136.192 87.4733 138.813 88.51C141.411 89.5709 143.942 90.0772 146.384 90.0772C148.602 90.0772 150.461 89.7879 151.917 89.1851C153.373 88.5824 154.112 87.425 154.112 85.7132C154.112 85.0381 153.955 84.4112 153.642 83.8567C153.328 83.3021 152.746 82.7717 151.917 82.2895C151.088 81.8073 149.923 81.3009 148.422 80.7705C146.922 80.2401 145.04 79.6373 142.733 78.9622C140.851 78.4318 138.992 77.7567 137.155 76.8887C135.318 76.0207 133.683 74.9598 132.25 73.682C130.816 72.4041 129.674 70.8851 128.8 69.0768C127.926 67.2685 127.501 65.195 127.501 62.7839C127.501 60.3246 128.016 58.0823 129.069 56.1053C130.122 54.1282 131.555 52.3922 133.392 50.9456C135.229 49.4748 137.424 48.3657 139.978 47.5701C142.509 46.7744 145.242 46.3887 148.176 46.3887C152.342 46.3887 155.994 46.895 159.13 47.9076C162.266 48.9203 165.155 50.391 167.798 52.344L161.437 63.025C159.846 61.8918 158.01 60.8792 155.949 59.9871C153.888 59.095 151.581 58.6369 149.005 58.6369C146.698 58.6369 145.04 58.9986 143.987 59.6978C142.934 60.4211 142.419 61.3614 142.419 62.5669C142.419 64.2788 143.494 65.5567 145.645 66.3764C147.795 67.1962 150.73 68.1365 154.403 69.1733C159.421 70.6681 163.05 72.7416 165.312 75.3456C167.574 77.9737 168.694 81.4456 168.694 85.7855C168.694 88.7029 168.09 91.2104 166.858 93.308C165.648 95.4057 164.013 97.1416 161.952 98.5401C159.891 99.9385 157.562 100.951 154.963 101.626C152.365 102.301 149.699 102.639 146.989 102.639C142.598 102.639 138.454 102.012 134.557 100.734C130.659 99.4563 127.501 97.5033 125.059 94.8993L132.496 84.58Z" fill="black"/>
<path d="M222.477 95.1408C221.917 95.5265 221.088 96.1293 219.968 96.9973C218.848 97.8653 217.414 98.7091 215.645 99.5289C213.875 100.349 211.77 101.072 209.328 101.723C206.886 102.35 204.109 102.687 200.973 102.687C196.806 102.687 193.043 101.988 189.706 100.614C186.368 99.2396 183.523 97.3107 181.194 94.8273C178.864 92.3439 177.094 89.3783 175.862 85.9064C174.653 82.4344 174.026 78.5767 174.026 74.3815C174.026 70.7166 174.608 67.1724 175.75 63.7728C176.893 60.3732 178.55 57.3834 180.701 54.8518C182.851 52.2961 185.494 50.2708 188.63 48.7277C191.766 47.1846 195.306 46.4131 199.27 46.4131C203.235 46.4131 206.707 47.1605 209.709 48.6554C212.71 50.1502 215.219 52.2238 217.28 54.9C219.341 57.5522 220.886 60.7348 221.917 64.4479C222.97 68.1609 223.485 72.2115 223.485 76.6479V79.3483H188.653C188.72 82.1933 189.885 84.6767 192.147 86.8226C194.41 88.9684 197.523 90.0293 201.488 90.0293C205.386 90.0293 208.544 89.4024 210.986 88.1728C213.427 86.9431 215.197 85.8581 216.317 84.966L222.477 95.1408ZM209.328 68.9566C209.328 67.8234 209.126 66.6902 208.701 65.5328C208.275 64.3755 207.648 63.3147 206.819 62.3261C205.99 61.3617 204.938 60.5419 203.683 59.9151C202.429 59.2882 200.928 58.9506 199.203 58.9506C197.456 58.9506 195.933 59.2641 194.611 59.9151C193.29 60.5419 192.192 61.3617 191.318 62.3261C190.445 63.2906 189.795 64.3755 189.325 65.5328C188.877 66.6902 188.653 67.8475 188.653 68.9566H209.328Z" fill="black"/>
<path d="M230.608 48.173H245.011L245.437 53.9113C247.027 51.8137 249.133 50.126 251.754 48.8481C254.352 47.5702 257.085 46.9434 259.952 46.9434C265.597 46.9434 270.054 48.7517 273.37 52.3442C276.685 55.9366 278.32 61.2651 278.32 68.3054V100.879H263.29V70.5236C263.29 67.6062 262.618 65.2916 261.251 63.5556C259.885 61.8438 258.003 60.9758 255.562 60.9758C253.882 60.9758 252.426 61.2892 251.171 61.9402C249.917 62.5671 248.886 63.4109 248.035 64.4718C247.206 65.5327 246.579 66.7382 246.154 68.1125C245.728 69.511 245.526 70.9817 245.526 72.5489V100.855H230.608V48.173Z" fill="black"/>
<path d="M292.611 84.58C294.202 86.1472 296.307 87.4733 298.928 88.51C301.526 89.5709 304.058 90.0772 306.499 90.0772C308.717 90.0772 310.576 89.7879 312.032 89.1851C313.488 88.5824 314.227 87.425 314.227 85.7132C314.227 85.0381 314.07 84.4112 313.757 83.8567C313.443 83.3021 312.861 82.7717 312.032 82.2895C311.203 81.8073 310.038 81.3009 308.538 80.7705C307.037 80.2401 305.155 79.6373 302.848 78.9622C300.966 78.4318 299.107 77.7567 297.27 76.8887C295.434 76.0207 293.798 74.9598 292.365 73.682C290.931 72.4041 289.789 70.8851 288.915 69.0768C288.042 67.2685 287.616 65.195 287.616 62.7839C287.616 60.3246 288.131 58.0823 289.184 56.1053C290.237 54.1282 291.67 52.3922 293.507 50.9456C295.344 49.4748 297.539 48.3657 300.093 47.5701C302.624 46.7744 305.357 46.3887 308.291 46.3887C312.458 46.3887 316.109 46.895 319.245 47.9076C322.381 48.9203 325.27 50.391 327.914 52.344L321.552 63.025C319.962 61.8918 318.125 60.8792 316.064 59.9871C314.003 59.095 311.696 58.6369 309.12 58.6369C306.813 58.6369 305.155 58.9986 304.102 59.6978C303.05 60.4211 302.534 61.3614 302.534 62.5669C302.534 64.2788 303.61 65.5567 305.76 66.3764C307.91 67.1962 310.845 68.1365 314.518 69.1733C319.536 70.6681 323.165 72.7416 325.427 75.3456C327.69 77.9737 328.81 81.4456 328.81 85.7855C328.81 88.7029 328.205 91.2104 326.973 93.308C325.763 95.4057 324.128 97.1416 322.067 98.5401C320.006 99.9385 317.677 100.951 315.078 101.626C312.48 102.301 309.814 102.639 307.104 102.639C302.714 102.639 298.57 102.012 294.672 100.734C290.774 99.4563 287.616 97.5033 285.174 94.8993L292.611 84.58Z" fill="black"/>
</svg>
