<svg width="232" height="79" viewBox="0 0 232 79" fill="none" xmlns="http://www.w3.org/2000/svg">
<path d="M57.5051 34.8945C56.0512 32.0998 56.2677 28.6338 58.0619 26.0421C59.4693 24.0125 61.6347 22.6854 64.0165 22.3888C62.5936 22.5605 61.2171 23.0913 60.0261 23.95C59.4384 24.3872 58.9125 24.8712 58.3093 25.2927C57.6907 25.7299 57.0411 26.1358 56.376 26.4949C55.0149 27.2287 53.5611 27.7751 52.0608 28.1342C50.7307 28.4465 49.3541 28.6026 47.9931 28.6026C46.632 28.6026 45.2555 28.4465 43.9253 28.1342C42.4251 27.7751 40.9712 27.2287 39.6101 26.4949C38.9451 26.1358 38.2955 25.7299 37.6768 25.2927C37.0736 24.8712 36.5477 24.3716 35.96 23.95C33.4235 22.0921 30.0053 21.7955 27.2059 23.2006C24.5147 24.5433 22.6896 27.2287 22.4576 30.2575C22.2256 33.3176 23.6485 36.2372 26.1232 37.9858C28.6907 39.7969 32.1243 40.0154 34.8928 38.5478C35.5579 38.2044 36.1765 37.7672 36.7179 37.252C37.2747 36.7992 37.8933 36.3621 38.512 35.9718C39.8112 35.1443 41.2032 34.5042 42.6725 34.0358C44.4048 33.4894 46.2144 33.2239 48.0085 33.2239C49.8027 33.2239 51.5968 33.4894 53.3445 34.0358C54.7984 34.4886 56.2059 35.1443 57.5051 35.9718C58.0309 36.2996 58.5259 36.6587 59.0208 37.0334C58.9435 36.9397 58.8816 36.8461 58.8043 36.7524C58.2784 36.1903 57.8453 35.5502 57.5051 34.8945Z" fill="white"/>
<path d="M9.8832 40.5451C12.6827 39.1399 16.1163 39.4366 18.6373 41.2945C18.9931 41.5599 19.3179 41.8409 19.6581 42.1063C19.488 41.8878 19.3179 41.6848 19.1632 41.4506C18.7301 40.8261 18.328 40.1704 17.9723 39.499C17.2453 38.1251 16.704 36.6575 16.3483 35.1431C16.0389 33.8004 15.8843 32.4109 15.8843 31.037C15.8843 29.663 16.0389 28.2735 16.3483 26.9308C16.704 25.4164 17.2453 23.9488 17.9723 22.5749C18.328 21.9036 18.7301 21.2478 19.1632 20.6233C19.3488 20.3735 19.5344 20.1237 19.72 19.8895C19.5963 19.9832 19.488 20.0769 19.3643 20.1706C18.8229 20.6858 18.1888 21.1229 17.5392 21.4664C14.7707 22.934 11.3371 22.7154 8.7696 20.9043C7.08374 19.7178 5.8928 17.9848 5.36694 16.0332C5.5216 16.6421 5.7536 17.251 6.04747 17.8287C6.38774 18.5 6.8208 19.1245 7.3312 19.671C7.77974 20.233 8.2128 20.8575 8.59947 21.482C9.4192 22.7935 10.0533 24.1986 10.5173 25.6818C11.0587 27.4304 11.3216 29.2571 11.3216 31.0682C11.3216 32.8793 11.0587 34.6903 10.5173 36.4545C10.0688 37.9221 9.4192 39.3429 8.59947 40.6543C8.2128 41.2789 7.77974 41.8877 7.3312 42.4654C6.8208 43.0119 6.38774 43.652 6.04747 44.3077C5.44427 45.4787 5.13494 46.7589 5.104 48.0547C5.104 47.9142 5.104 47.7737 5.11947 47.6332C5.35147 44.5575 7.192 41.8878 9.8832 40.5451Z" fill="white"/>
<path d="M30.6704 50.5696C32.4645 50.5696 34.2587 50.8351 36.0064 51.3815C37.4603 51.8343 38.8677 52.49 40.1669 53.3175C40.7856 53.7078 41.3888 54.1449 41.9611 54.5977C42.5024 55.1129 43.1365 55.5501 43.7861 55.8935C46.5547 57.3611 49.9883 57.1426 52.5557 55.3315C55.0304 53.5829 56.4533 50.6633 56.2213 47.6032C55.9893 44.5744 54.1488 41.889 51.4731 40.5463C48.6736 39.1412 45.24 39.4378 42.7189 41.2957C42.1312 41.7329 41.6053 42.2169 41.0021 42.6384C40.3835 43.0756 39.7339 43.4815 39.0688 43.8406C37.7077 44.5744 36.2539 45.1208 34.7536 45.4799C33.4235 45.7922 32.0469 45.9483 30.6859 45.9483C29.3248 45.9483 27.9483 45.7922 26.6181 45.4799C25.1179 45.1208 23.664 44.5744 22.3029 43.8406C21.6379 43.4815 20.9883 43.0756 20.3696 42.6384C20.1376 42.4667 19.9056 42.2949 19.6736 42.1076C19.952 42.4667 20.2459 42.8102 20.5243 43.1849C22.3648 45.7453 22.6587 49.1957 21.2667 52.0216C20.1067 54.3947 17.9259 56.1121 15.3893 56.6586C16.1472 56.5024 16.8896 56.237 17.5856 55.8779C18.2507 55.5345 18.8693 55.0973 19.4107 54.5821C19.9675 54.1293 20.5861 53.6922 21.2048 53.3018C22.504 52.4744 23.896 51.8343 25.3653 51.3659C27.0821 50.8194 28.8763 50.554 30.6704 50.5696Z" fill="white"/>
<path d="M21.251 52.0372C22.643 49.2113 22.3491 45.7453 20.5086 43.2005C20.2457 42.8258 19.9518 42.4823 19.6579 42.1232C19.3177 41.8422 18.9929 41.5612 18.6371 41.3114C16.1006 39.4534 12.6825 39.1568 9.883 40.5619C7.1918 41.9046 5.36673 44.59 5.13473 47.6189C5.11926 47.7594 5.11926 47.8999 5.11926 48.0404C5.11926 48.1029 5.11926 48.1497 5.11926 48.2121C5.11926 48.2746 5.11926 48.337 5.11926 48.4151C5.11926 48.54 5.11926 48.6805 5.13473 48.8054C5.13473 48.8366 5.13473 48.8835 5.1502 48.9147C5.16566 49.0708 5.18113 49.2114 5.1966 49.3675C5.21206 49.4299 5.21206 49.508 5.22753 49.5704C5.243 49.6797 5.25846 49.8046 5.2894 49.9139C5.32033 50.0544 5.35126 50.1949 5.3822 50.3198C5.39766 50.3511 5.39766 50.3979 5.41313 50.4291C5.92353 52.3963 7.11446 54.1449 8.8158 55.3315C8.83126 55.3315 8.83126 55.3471 8.84673 55.3471C8.98593 55.4408 9.1406 55.5501 9.29526 55.6281C9.31073 55.6438 9.34166 55.6594 9.35713 55.6594C9.5118 55.7531 9.66646 55.8467 9.82113 55.9248C9.82113 55.9248 9.8366 55.9248 9.8366 55.9404C11.5534 56.8147 13.5331 57.0801 15.4201 56.6898C17.9102 56.1278 20.091 54.4104 21.251 52.0372Z" fill="white"/>
<path d="M21.2512 10.0373C22.6432 12.8632 22.3493 16.3292 20.5088 18.8741C20.2613 19.2176 19.9984 19.5455 19.7355 19.8733C20.1995 19.5142 20.6789 19.1864 21.1739 18.8741C22.4731 18.0466 23.8651 17.4065 25.3344 16.9381C27.0667 16.3917 28.8763 16.1263 30.6704 16.1263C32.4645 16.1263 34.2587 16.3917 36.0064 16.9381C37.4603 17.3909 38.8677 18.0466 40.1669 18.8741C40.7856 19.2644 41.3888 19.7016 41.9611 20.1543C42.5024 20.6696 43.1365 21.1067 43.7861 21.4502C46.5547 22.9178 49.9883 22.6992 52.5557 20.8881C55.0304 19.1395 56.4533 16.22 56.2213 13.1599C55.9893 10.131 54.1488 7.44565 51.4731 6.10296C48.6736 4.69782 45.24 4.99446 42.7189 6.85237C42.1312 7.28952 41.6053 7.77351 41.0021 8.19506C40.3835 8.63221 39.7339 9.03814 39.0688 9.39723C37.7077 10.131 36.2539 10.6775 34.7536 11.0366C33.4235 11.3488 32.0469 11.5049 30.6859 11.5049C29.3248 11.5049 27.9483 11.3488 26.6181 11.0366C25.1179 10.6775 23.664 10.131 22.3029 9.39723C21.6379 9.03814 20.9883 8.63221 20.3696 8.19506C19.7664 7.77351 19.2405 7.27391 18.6528 6.85237C18.0032 6.36838 17.2763 5.99367 16.5339 5.72826C18.5445 6.49328 20.2613 8.03893 21.2512 10.0373Z" fill="white"/>
<path d="M8.78519 20.8893C11.3527 22.7004 14.7863 22.9189 17.5548 21.4513C18.2199 21.1079 18.8385 20.6707 19.3799 20.1555C19.5036 20.0618 19.6119 19.9681 19.7356 19.8745C19.9985 19.5466 20.2615 19.2187 20.5089 18.8753C22.3495 16.3148 22.6433 12.8644 21.2513 10.0385C20.2615 8.02446 18.5447 6.49442 16.5031 5.7294C14.91 5.15174 13.1623 5.05806 11.5228 5.4796C9.55853 5.99482 7.81079 7.21261 6.61986 8.93C5.28973 10.866 4.82573 13.2703 5.27426 15.5341C5.28973 15.5966 5.30519 15.6747 5.32066 15.7371C5.33613 15.8152 5.36706 15.9089 5.38253 15.9869C5.89293 17.9697 7.09933 19.7027 8.78519 20.8893Z" fill="white"/>
<path d="M68.7957 57.6262C71.3013 58.8908 73.08 61.3107 73.4821 64.0898C73.281 62.7315 72.7706 61.4044 71.9509 60.2647C71.5178 59.6714 71.0384 59.1406 70.6208 58.5317C70.1877 57.9072 69.7856 57.2515 69.4298 56.5801C68.7029 55.2062 68.1616 53.7386 67.8058 52.2242C67.4965 50.8815 67.3418 49.492 67.3418 48.1181C67.3418 46.7441 67.4965 45.3546 67.8058 44.0119C68.1616 42.4975 68.7029 41.0299 69.4298 39.656C69.7856 38.9847 70.1877 38.3289 70.6208 37.7044C71.0384 37.0955 71.5333 36.5647 71.9509 35.9714C72.817 34.7692 73.3274 33.3797 73.4976 31.9434C73.2037 34.3477 71.889 36.5491 69.8784 37.9542C67.3109 39.7653 63.8773 39.9839 61.1088 38.5163C60.4437 38.1728 59.825 37.7356 59.2837 37.2204C59.1909 37.1424 59.0981 37.0799 59.0053 37.0019C59.3765 37.4858 59.7322 38.0011 60.057 38.5319C60.8768 39.8434 61.5109 41.2485 61.9749 42.7317C62.5162 44.4803 62.7792 46.307 62.7792 48.1181C62.7792 49.9291 62.5162 51.7402 61.9749 53.5044C61.5264 54.972 60.8768 56.3928 60.057 57.7042C59.7477 58.2038 59.4074 58.7034 59.0517 59.1718C59.3765 58.9064 59.7013 58.641 60.0416 58.3912C62.5626 56.5177 65.9962 56.221 68.7957 57.6262Z" fill="white"/>
<path d="M61.1088 38.5321C63.8774 39.9997 67.3109 39.7811 69.8784 37.97C71.8891 36.5493 73.2038 34.3635 73.4976 31.9592V31.9436C73.5131 31.7874 73.5286 31.6313 73.544 31.4752C73.544 31.4127 73.544 31.3503 73.5595 31.2878C73.5595 31.1785 73.5595 31.0693 73.575 30.96C73.575 30.8507 73.575 30.757 73.575 30.6477C73.575 30.5697 73.575 30.4916 73.5595 30.4135C73.5595 30.2886 73.544 30.1637 73.5286 30.0388C73.5286 29.9764 73.5131 29.9139 73.5131 29.8671C73.4976 29.7422 73.4822 29.6017 73.4512 29.4768C73.4358 29.4143 73.4358 29.3519 73.4203 29.2894C73.4048 29.1645 73.3739 29.0552 73.343 28.9303C73.3275 28.8523 73.312 28.7742 73.2811 28.7117C73.2501 28.6181 73.2192 28.5088 73.1883 28.4151C73.1574 28.3214 73.1264 28.2278 73.0955 28.1341C73.0646 28.056 73.0336 27.978 73.0182 27.8999C72.9718 27.7906 72.9408 27.6969 72.8944 27.5876C72.8635 27.5252 72.8326 27.4471 72.8016 27.3847C72.7552 27.2754 72.7088 27.1661 72.647 27.0724C72.616 27.01 72.5851 26.9475 72.5542 26.9007C72.5078 26.807 72.4459 26.6977 72.384 26.604C72.3376 26.526 72.2912 26.4635 72.2603 26.4011C72.2139 26.3074 72.152 26.2293 72.0902 26.1513C72.0438 26.0732 71.9819 26.0108 71.9355 25.9327C71.8736 25.8546 71.8272 25.7766 71.7654 25.6985C71.7035 25.6204 71.6571 25.558 71.5952 25.4799C71.5334 25.4019 71.4869 25.3394 71.4251 25.2614C71.3632 25.1989 71.3014 25.1208 71.2395 25.0584C71.1776 24.9959 71.1158 24.9179 71.0539 24.8554C70.992 24.793 70.9302 24.7305 70.8528 24.6681C70.791 24.6056 70.7136 24.5432 70.6517 24.4807C70.5899 24.4183 70.5126 24.3558 70.4507 24.309C70.3734 24.2465 70.3115 24.1841 70.2342 24.1372C70.1568 24.0748 70.0795 24.028 70.0022 23.9655C69.9248 23.9187 69.863 23.8562 69.7856 23.8094C69.7083 23.7469 69.6155 23.7001 69.5382 23.6532C69.4608 23.6064 69.399 23.5596 69.3216 23.5127C69.2288 23.4503 69.1205 23.4034 69.0277 23.3566C68.9659 23.3254 68.904 23.2942 68.8422 23.2629C68.7339 23.2161 68.6411 23.1693 68.5328 23.1224C68.471 23.0912 68.3936 23.06 68.3317 23.0287C68.2235 22.9819 68.1307 22.9507 68.0224 22.9038C67.9451 22.8726 67.8677 22.8414 67.7904 22.8102C67.6976 22.7789 67.6048 22.7477 67.5275 22.7165C67.4347 22.6853 67.3264 22.654 67.2336 22.6228C67.1563 22.6072 67.0944 22.5916 67.0171 22.5604C66.8933 22.5291 66.7851 22.4979 66.6614 22.4823C66.5995 22.4667 66.5376 22.4667 66.4757 22.4511C66.352 22.4355 66.2128 22.4042 66.0891 22.3886C66.0272 22.3886 65.9654 22.373 65.9035 22.373C65.7798 22.3574 65.656 22.3574 65.5323 22.3418C65.455 22.3418 65.3776 22.3418 65.3003 22.3262C65.192 22.3262 65.0992 22.3262 64.991 22.3262C64.8827 22.3262 64.7744 22.3262 64.6662 22.3418C64.6043 22.3418 64.5424 22.3418 64.4805 22.3574C64.3259 22.373 64.1712 22.3886 64.0165 22.4042H64.0011C61.6192 22.7009 59.4384 24.0279 58.0464 26.0576C56.2523 28.6493 56.0358 32.1153 57.4896 34.91C57.8299 35.5813 58.263 36.2058 58.7734 36.7523C58.8507 36.8459 58.9126 36.9396 58.9899 37.0333C59.0827 37.1113 59.1755 37.1738 59.2683 37.2519C59.8251 37.7515 60.4438 38.1886 61.1088 38.5321Z" fill="white"/>
<path d="M58.0619 70.2102C56.2678 67.6185 56.0512 64.1525 57.5051 61.3578C57.8454 60.6865 58.2784 60.062 58.7888 59.5155C58.8816 59.4063 58.959 59.297 59.0518 59.1721C58.8198 59.3594 58.5723 59.5624 58.3248 59.7341C57.7062 60.1713 57.0566 60.5772 56.3915 60.9363C55.0304 61.6701 53.5766 62.2165 52.0763 62.5756C50.7462 62.8879 49.3696 63.044 48.0086 63.044C46.6475 63.044 45.271 62.8879 43.9408 62.5756C42.4406 62.2165 40.9867 61.6701 39.6256 60.9363C38.9606 60.5772 38.311 60.1713 37.6923 59.7341C37.0891 59.3126 36.5632 58.813 35.9755 58.3914C33.439 56.5335 30.0208 56.2369 27.2214 57.642C24.5302 58.9847 22.7051 61.6701 22.4731 64.6989C22.2411 67.759 23.664 70.6786 26.1387 72.4272C28.7062 74.2383 32.1398 74.4568 34.9083 72.9893C35.5734 72.6458 36.192 72.2086 36.7334 71.6934C37.2902 71.2406 37.9088 70.8035 38.5275 70.4132C39.8267 69.5857 41.2187 68.9456 42.688 68.4772C44.4203 67.9308 46.2299 67.6653 48.024 67.6653C49.8182 67.6653 51.6123 67.9308 53.36 68.4772C54.8139 68.93 56.2214 69.5857 57.5206 70.4132C58.1392 70.8035 58.7424 71.2406 59.3147 71.6934C59.856 72.2086 60.4902 72.6458 61.1398 72.9893C62.2224 73.5669 63.4134 73.8792 64.6043 73.9416C61.975 73.7699 59.5622 72.396 58.0619 70.2102Z" fill="white"/>
<path d="M73.544 65.9948C73.544 65.9323 73.5595 65.8699 73.5595 65.7918C73.5595 65.6981 73.5595 65.5889 73.5595 65.4952C73.5595 65.4015 73.5595 65.3078 73.5595 65.2142C73.5595 65.1205 73.5595 65.0268 73.544 64.9331C73.544 64.8395 73.544 64.7458 73.5285 64.6521C73.5131 64.5272 73.4976 64.4023 73.4822 64.2618C73.4822 64.2149 73.4667 64.1525 73.4667 64.1057C73.0645 61.3266 71.2859 58.891 68.7803 57.642C65.9808 56.2369 62.5472 56.5335 60.0262 58.3914C59.6859 58.6412 59.3611 58.9066 59.0363 59.1721C58.9435 59.2813 58.8662 59.4063 58.7734 59.5155C58.263 60.062 57.8299 60.7021 57.4896 61.3578C56.0358 64.1525 56.2523 67.6185 58.0464 70.2102C59.5621 72.396 61.9595 73.7699 64.5579 73.926C64.5733 73.926 64.6043 73.926 64.6197 73.926C64.7589 73.926 64.9136 73.9416 65.0528 73.9416C65.2075 73.9416 65.3621 73.9416 65.5013 73.926C65.5168 73.926 65.5323 73.926 65.5632 73.926C67.0789 73.8323 68.5792 73.3171 69.863 72.4272C69.8784 72.4272 69.8784 72.4116 69.8939 72.4116C71.8891 70.9908 73.1883 68.8207 73.4976 66.4163C73.4976 66.4163 73.4976 66.4163 73.4976 66.4007C73.5131 66.2446 73.5285 66.1197 73.544 65.9948Z" fill="white"/>
<path d="M91.4853 54.7695C92.5835 55.7843 94.0373 56.643 95.8469 57.3144C97.6411 58.0013 99.3888 58.3292 101.075 58.3292C102.606 58.3292 103.89 58.1418 104.895 57.7515C105.9 57.3612 106.411 56.6118 106.411 55.5033C106.411 55.0661 106.302 54.6602 106.086 54.3011C105.869 53.942 105.467 53.5985 104.895 53.2863C104.323 52.974 103.518 52.6462 102.482 52.3027C101.446 51.9592 100.147 51.5689 98.5536 51.1318C97.2544 50.7883 95.9707 50.3511 94.7024 49.7891C93.4341 49.227 92.3051 48.5401 91.3152 47.7126C90.3253 46.8851 89.5365 45.9015 88.9333 44.7306C88.3301 43.5596 88.0363 42.2169 88.0363 40.6557C88.0363 39.0632 88.392 37.6112 89.1189 36.331C89.8459 35.0507 90.8357 33.9266 92.104 32.9899C93.3723 32.0375 94.888 31.3193 96.6512 30.8041C98.3989 30.2889 100.286 30.0391 102.312 30.0391C105.189 30.0391 107.71 30.3669 109.875 31.0227C112.041 31.6784 114.036 32.6308 115.861 33.8954L111.468 40.8118C110.37 40.078 109.102 39.4223 107.679 38.8446C106.256 38.2669 104.663 37.9703 102.884 37.9703C101.291 37.9703 100.147 38.2045 99.4197 38.6572C98.6928 39.1256 98.3371 39.7345 98.3371 40.5152C98.3371 41.6236 99.0795 42.4511 100.564 42.9819C102.049 43.5128 104.075 44.1217 106.612 44.793C110.076 45.761 112.582 47.1037 114.144 48.7899C115.706 50.4916 116.479 52.7399 116.479 55.5501C116.479 57.4393 116.062 59.063 115.211 60.4213C114.376 61.7796 113.247 62.9037 111.824 63.8092C110.401 64.7148 108.793 65.3705 106.998 65.8076C105.204 66.2448 103.364 66.4634 101.492 66.4634C98.4608 66.4634 95.5995 66.0574 92.9083 65.23C90.2171 64.4025 88.0363 63.1379 86.3504 61.4517L91.4853 54.7695Z" fill="white"/>
<path d="M153.615 61.6079C153.228 61.8577 152.656 62.248 151.883 62.81C151.109 63.3721 150.119 63.9185 148.898 64.4494C147.676 64.9802 146.222 65.4486 144.536 65.8701C142.85 66.276 140.932 66.4946 138.767 66.4946C135.89 66.4946 133.292 66.0418 130.987 65.1519C128.683 64.262 126.718 63.013 125.11 61.4049C123.501 59.7968 122.279 57.8764 121.429 55.6282C120.594 53.38 120.161 50.882 120.161 48.1654C120.161 45.7922 120.563 43.4972 121.351 41.2958C122.14 39.0944 123.285 37.1584 124.77 35.5191C126.254 33.8642 128.079 32.5527 130.245 31.5535C132.41 30.5543 134.854 30.0547 137.591 30.0547C140.329 30.0547 142.726 30.5387 144.799 31.5067C146.871 32.4746 148.604 33.8173 150.027 35.5503C151.45 37.2677 152.517 39.3286 153.228 41.7329C153.955 44.1373 154.311 46.7602 154.311 49.6329V51.3816H130.26C130.307 53.2239 131.111 54.832 132.673 56.2215C134.235 57.611 136.385 58.298 139.123 58.298C141.814 58.298 143.995 57.892 145.681 57.0958C147.366 56.2996 148.588 55.597 149.362 55.0193L153.615 61.6079ZM144.536 44.6525C144.536 43.9187 144.397 43.1849 144.103 42.4355C143.809 41.6861 143.376 40.9992 142.804 40.359C142.231 39.7345 141.505 39.2037 140.638 38.7978C139.772 38.3918 138.736 38.1733 137.545 38.1733C136.339 38.1733 135.287 38.3762 134.374 38.7978C133.462 39.2037 132.704 39.7345 132.101 40.359C131.498 40.9835 131.049 41.6861 130.724 42.4355C130.415 43.1849 130.26 43.9343 130.26 44.6525H144.536Z" fill="white"/>
<path d="M159.229 31.1947H169.174L169.468 34.9105C170.566 33.5522 172.02 32.4593 173.83 31.6318C175.624 30.8044 177.511 30.3984 179.491 30.3984C183.388 30.3984 186.466 31.5694 188.755 33.8957C191.044 36.222 192.173 39.6723 192.173 44.2312V65.3239H181.795V45.6676C181.795 43.7785 181.331 42.2797 180.388 41.1556C179.444 40.0471 178.145 39.485 176.459 39.485C175.299 39.485 174.294 39.688 173.428 40.1095C172.562 40.5154 171.85 41.0619 171.262 41.7488C170.69 42.4358 170.257 43.2164 169.963 44.1063C169.669 45.0119 169.53 45.9642 169.53 46.9791V65.3083H159.229V31.1947Z" fill="white"/>
<path d="M202.041 54.7695C203.139 55.7843 204.593 56.643 206.403 57.3144C208.197 58.0013 209.945 58.3292 211.63 58.3292C213.162 58.3292 214.445 58.1418 215.451 57.7515C216.456 57.3612 216.966 56.6118 216.966 55.5033C216.966 55.0661 216.858 54.6602 216.642 54.3011C216.425 53.942 216.023 53.5985 215.451 53.2863C214.878 52.974 214.074 52.6462 213.038 52.3027C212.002 51.9592 210.702 51.5689 209.109 51.1318C207.81 50.7883 206.526 50.3511 205.258 49.7891C203.99 49.227 202.861 48.5401 201.871 47.7126C200.881 46.8851 200.092 45.9015 199.489 44.7306C198.886 43.5596 198.592 42.2169 198.592 40.6557C198.592 39.0632 198.948 37.6112 199.675 36.331C200.402 35.0507 201.391 33.9266 202.66 32.9899C203.928 32.0375 205.444 31.3193 207.207 30.8041C208.955 30.2889 210.842 30.0391 212.868 30.0391C215.745 30.0391 218.266 30.3669 220.431 31.0227C222.596 31.6784 224.591 32.6308 226.417 33.8954L222.024 40.8118C220.926 40.078 219.658 39.4223 218.235 38.8446C216.812 38.2669 215.219 37.9703 213.44 37.9703C211.847 37.9703 210.702 38.2045 209.975 38.6572C209.249 39.1256 208.893 39.7345 208.893 40.5152C208.893 41.6236 209.635 42.4511 211.12 42.9819C212.605 43.5128 214.631 44.1217 217.167 44.793C220.632 45.761 223.138 47.1037 224.7 48.7899C226.262 50.4916 227.035 52.7399 227.035 55.5501C227.035 57.4393 226.618 59.063 225.767 60.4213C224.932 61.7796 223.803 62.9037 222.38 63.8092C220.957 64.7148 219.348 65.3705 217.554 65.8076C215.76 66.2448 213.919 66.4634 212.048 66.4634C209.017 66.4634 206.155 66.0574 203.464 65.23C200.773 64.4025 198.592 63.1379 196.906 61.4517L202.041 54.7695Z" fill="white"/>
</svg>
